<svg 
 xmlns="http://www.w3.org/2000/svg"
 xmlns:xlink="http://www.w3.org/1999/xlink"
 width="22px" height="22px">
<defs>
<filter id="Filter_0">
    <feFlood flood-color="rgb(209, 209, 209)" flood-opacity="1" result="floodOut" />
    <feComposite operator="atop" in="floodOut" in2="SourceGraphic" result="compOut" />
    <feBlend mode="normal" in="compOut" in2="SourceGraphic" />
</filter>

</defs>
<g filter="url(#Filter_0)">
<path fill-rule="evenodd"  fill="rgb(0, 0, 0)"
 d="M14.417,11.566 L9.645,16.339 C9.358,16.625 8.892,16.625 8.605,16.339 C8.318,16.051 8.318,15.584 8.605,15.298 L12.859,11.043 L8.605,6.789 C8.318,6.502 8.318,6.037 8.605,5.749 C8.892,5.462 9.358,5.462 9.645,5.749 L14.417,10.520 C14.562,10.665 14.634,10.855 14.633,11.043 C14.633,11.233 14.562,11.421 14.417,11.566 ZM11.013,21.974 C4.947,21.974 0.028,17.057 0.028,10.989 C0.028,4.924 4.947,0.005 11.013,0.005 C17.079,0.005 21.997,4.924 21.997,10.989 C21.997,17.057 17.079,21.974 11.013,21.974 ZM11.013,1.477 C5.768,1.477 1.499,5.747 1.499,10.989 C1.499,16.235 5.768,20.503 11.013,20.503 C16.257,20.503 20.525,16.235 20.525,10.989 C20.525,5.747 16.257,1.477 11.013,1.477 Z"/>
</g>
</svg>